P3
6 18
255
133 7 250 133 7 250 133 7 250 133 7 250 133 7 250 133 7 250 133 7 250 133 7 250 133 7 250 133 7 250 133 7 250 133 7 250 133 7 250 133 7 250 133 7 250 133 7 250 133 7 250 133 7 250 0 0 255 0 0 255 0 0 255 0 0 255 0 0 255 0 0 255 0 0 255 0 0 255 0 0 255 0 0 255 0 0 255 0 0 255 0 0 255 0 0 255 0 0 255 0 0 255 0 0 255 0 0 255 0 255 0 0 255 0 0 255 0 0 255 0 0 255 0 0 255 0 0 255 0 0 255 0 0 255 0 0 255 0 0 255 0 0 255 0 0 255 0 0 255 0 0 255 0 0 255 0 0 255 0 0 255 0 246 255 0 246 255 0 246 255 0 246 255 0 246 255 0 246 255 0 246 255 0 246 255 0 246 255 0 246 255 0 246 255 0 246 255 0 246 255 0 246 255 0 246 255 0 246 255 0 246 255 0 246 255 0 255 153 0 255 153 0 255 153 0 255 153 0 255 153 0 255 153 0 255 153 0 255 153 0 255 153 0 255 153 0 255 153 0 255 153 0 255 153 0 255 153 0 255 153 0 255 153 0 255 153 0 255 153 0 255 0 0 255 0 0 255 0 0 255 0 0 255 0 0 255 0 0 255 0 0 255 0 0 255 0 0 255 0 0 255 0 0 255 0 0 255 0 0 255 0 0 255 0 0 255 0 0 255 0 0 255 0 0 