P3
6 18
255
143 0 0 191 0 0 191 0 0 191 0 0 191 0 0 143 0 0 191 0 0 255 0 0 255 0 0 255 0 0 255 0 0 191 0 0 191 28 0 255 38 0 255 38 0 255 38 0 255 38 0 191 28 0 191 86 0 255 114 0 255 114 0 255 114 0 255 114 0 191 86 0 191 114 0 255 153 0 255 153 0 255 153 0 255 153 0 191 114 0 189 133 0 252 178 0 252 178 0 252 178 0 252 178 0 189 133 0 186 172 0 248 229 0 248 229 0 248 229 0 248 229 0 186 172 0 184 191 0 246 255 0 246 255 0 246 255 0 246 255 0 184 191 0 138 191 0 184 255 0 184 255 0 184 255 0 184 255 0 138 191 0 46 191 0 61 255 0 61 255 0 61 255 0 61 255 0 46 191 0 0 191 0 0 255 0 0 255 0 0 255 0 0 255 0 0 191 0 0 143 47 0 191 63 0 191 63 0 191 63 0 191 63 0 143 47 0 47 143 0 63 191 0 63 191 0 63 191 0 63 191 0 47 143 0 0 191 0 0 255 0 0 255 0 0 255 0 0 255 0 0 191 24 1 190 33 1 253 33 1 253 33 1 253 33 1 253 24 1 190 74 3 188 99 5 251 99 5 251 99 5 251 99 5 251 74 3 188 99 5 187 133 7 250 133 7 250 133 7 250 133 7 250 99 5 187 74 3 140 99 5 187 99 5 187 99 5 187 99 5 187 74 3 140 