P3
6 18
255
100 88 69 100 88 69 100 88 69 100 88 69 100 88 69 100 88 69 100 88 69 100 88 69 100 88 69 100 88 69 100 88 69 100 88 69 100 88 69 100 88 69 100 88 69 100 88 69 100 88 69 100 88 69 217 193 151 217 193 151 217 193 151 217 193 151 217 193 151 217 193 151 217 193 151 217 193 151 217 193 151 217 193 151 217 193 151 217 193 151 217 193 151 217 193 151 217 193 151 217 193 151 217 193 151 217 193 151 255 255 203 255 255 203 255 255 203 255 255 203 255 255 203 255 255 203 255 255 203 255 255 203 255 255 203 255 255 203 255 255 203 255 255 203 255 255 203 255 255 203 255 255 203 255 255 203 255 255 203 255 255 203 196 174 136 196 174 136 196 174 136 196 174 136 196 174 136 196 174 136 196 174 136 196 174 136 196 174 136 196 174 136 196 174 136 196 174 136 196 174 136 196 174 136 196 174 136 196 174 136 196 174 136 196 174 136 48 42 33 48 42 33 48 42 33 48 42 33 48 42 33 48 42 33 48 42 33 48 42 33 48 42 33 48 42 33 48 42 33 48 42 33 48 42 33 48 42 33 48 42 33 48 42 33 48 42 33 48 42 33 104 93 72 104 93 72 104 93 72 104 93 72 104 93 72 104 93 72 104 93 72 104 93 72 104 93 72 104 93 72 104 93 72 104 93 72 104 93 72 104 93 72 104 93 72 104 93 72 104 93 72 104 93 72 